<?xml version="1.0" encoding="UTF-8" standalone="no"?>
<svg
   width="1vw"
   height="1vh"
   viewBox="0 0 95.338287 68.860283"
   version="1.1"
   id="svg8"
   inkscape:version="1.2 (dc2aedaf03, 2022-05-15)"
   sodipodi:docname="TT_Logo_Other.svg"
   xmlns:inkscape="http://www.inkscape.org/namespaces/inkscape"
   xmlns:sodipodi="http://sodipodi.sourceforge.net/DTD/sodipodi-0.dtd"
   xmlns:xlink="http://www.w3.org/1999/xlink"
   xmlns="http://www.w3.org/2000/svg"
   xmlns:svg="http://www.w3.org/2000/svg"
   xmlns:rdf="http://www.w3.org/1999/02/22-rdf-syntax-ns#"
   xmlns:cc="http://creativecommons.org/ns#"
   xmlns:dc="http://purl.org/dc/elements/1.1/">
  <style
     id="style833" />
  <defs
     id="defs2">
    <marker
       style="overflow:visible"
       id="marker1750"
       refX="0"
       refY="0"
       orient="auto"
       inkscape:stockid="DotL"
       inkscape:isstock="true">
      <path
         transform="matrix(0.8,0,0,0.8,5.92,0.8)"
         style="fill:#ff6600;fill-opacity:1;fill-rule:evenodd;stroke:#000000;stroke-width:1pt;stroke-opacity:1"
         d="m -2.5,-1 c 0,2.76 -2.24,5 -5,5 -2.76,0 -5,-2.24 -5,-5 0,-2.76 2.24,-5 5,-5 2.76,0 5,2.24 5,5 z"
         id="path1486" />
    </marker>
    <marker
       style="overflow:visible"
       id="Arrow2Lstart"
       refX="0"
       refY="0"
       orient="auto"
       inkscape:stockid="Arrow2Lstart"
       inkscape:isstock="true">
      <path
         transform="matrix(1.1,0,0,1.1,1.1,0)"
         d="M 8.7185878,4.0337352 -2.2072895,0.01601326 8.7185884,-4.0017078 c -1.7454984,2.3720609 -1.7354408,5.6174519 -6e-7,8.035443 z"
         style="fill:#000000;fill-opacity:1;fill-rule:evenodd;stroke:#000000;stroke-width:0.625;stroke-linejoin:round;stroke-opacity:1"
         id="path1443" />
    </marker>
    <linearGradient
       inkscape:collect="always"
       id="linearGradient885">
      <stop
         style="stop-color:#ff6600;stop-opacity:1;"
         offset="0"
         id="stop881" />
      <stop
         style="stop-color:#ff6600;stop-opacity:0;"
         offset="1"
         id="stop883" />
    </linearGradient>
    <rect
       x="44.099472"
       y="147.53278"
       width="103.16604"
       height="26.192413"
       id="rect3151" />
    <marker
       style="overflow:visible"
       id="marker3033"
       refX="0"
       refY="0"
       orient="auto"
       inkscape:stockid="DotL"
       inkscape:isstock="true">
      <path
         transform="matrix(0.8,0,0,0.8,5.92,0.8)"
         style="fill:#000000;fill-opacity:1;fill-rule:evenodd;stroke:#000000;stroke-width:1pt;stroke-opacity:1"
         d="m -2.5,-1 c 0,2.76 -2.24,5 -5,5 -2.76,0 -5,-2.24 -5,-5 0,-2.76 2.24,-5 5,-5 2.76,0 5,2.24 5,5 z"
         id="path3031" />
    </marker>
    <marker
       style="overflow:visible"
       id="DotL"
       refX="0"
       refY="0"
       orient="auto"
       inkscape:stockid="DotL"
       inkscape:isstock="true">
      <path
         transform="matrix(0.8,0,0,0.8,5.92,0.8)"
         style="fill:#000000;fill-opacity:1;fill-rule:evenodd;stroke:#000000;stroke-width:1pt;stroke-opacity:1"
         d="m -2.5,-1 c 0,2.76 -2.24,5 -5,5 -2.76,0 -5,-2.24 -5,-5 0,-2.76 2.24,-5 5,-5 2.76,0 5,2.24 5,5 z"
         id="path2816" />
    </marker>
    <rect
       x="44.099472"
       y="147.53278"
       width="138.44562"
       height="25.925144"
       id="rect3172" />
    <linearGradient
       inkscape:collect="always"
       xlink:href="#linearGradient885"
       id="linearGradient887"
       x1="18.288713"
       y1="81.120804"
       x2="78.727242"
       y2="81.120804"
       gradientUnits="userSpaceOnUse" />
    <linearGradient
       inkscape:collect="always"
       xlink:href="#linearGradient885"
       id="linearGradient2112"
       x1="61.380157"
       y1="129.259"
       x2="122.88495"
       y2="129.259"
       gradientUnits="userSpaceOnUse"
       gradientTransform="rotate(-7.3317015,-772.30466,411.07078)" />
  </defs>
  <sodipodi:namedview
     id="base"
     pagecolor="#ffffff"
     bordercolor="#666666"
     borderopacity="1.0"
     inkscape:pageopacity="0.0"
     inkscape:pageshadow="2"
     inkscape:zoom="0.98994949"
     inkscape:cx="333.35034"
     inkscape:cy="313.14729"
     inkscape:document-units="mm"
     inkscape:current-layer="layer1"
     inkscape:document-rotation="0"
     showgrid="false"
     inkscape:window-width="1920"
     inkscape:window-height="1017"
     inkscape:window-x="1912"
     inkscape:window-y="-8"
     inkscape:window-maximized="1"
     inkscape:showpageshadow="2"
     inkscape:pagecheckerboard="0"
     inkscape:deskcolor="#d1d1d1" />
  <metadata
     id="metadata5">
    <rdf:RDF>
      <cc:Work
         rdf:about="">
        <dc:format>image/svg+xml</dc:format>
        <dc:type
           rdf:resource="http://purl.org/dc/dcmitype/StillImage" />
      </cc:Work>
    </rdf:RDF>
  </metadata>
  <g
     inkscape:label="Layer 1"
     inkscape:groupmode="layer"
     id="layer1"
     transform="translate(-1.4330178,-2.3765294)">
    <text
       xml:space="preserve"
       id="text3149"
       style="font-style:normal;font-variant:normal;font-weight:bold;font-stretch:normal;font-size:22.5778px;line-height:1.25;font-family:'Book Antiqua';-inkscape-font-specification:'Book Antiqua, Bold';font-variant-ligatures:normal;font-variant-caps:normal;font-variant-numeric:normal;font-variant-east-asian:normal;white-space:pre;shape-inside:url(#rect3151);fill:#000000;fill-opacity:1;stroke:none"
       transform="translate(-43.030394,-111.18412)"><tspan
         x="44.099609"
         y="166.89395"
         id="tspan166">Tractable</tspan></text>
    <text
       xml:space="preserve"
       id="text3170"
       style="font-style:normal;font-variant:normal;font-weight:normal;font-stretch:normal;font-size:14.1111px;line-height:1.25;font-family:'Book Antiqua';-inkscape-font-specification:'Book Antiqua, Normal';font-variant-ligatures:normal;font-variant-caps:normal;font-variant-numeric:normal;font-variant-east-asian:normal;white-space:pre;shape-inside:url(#rect3172);fill:#ff6600;fill-opacity:1;stroke:none;stroke-width:1;stroke-miterlimit:0.7;stroke-dasharray:none"
       transform="translate(-36.028503,-92.207987)"><tspan
         x="44.099609"
         y="159.46227"
         id="tspan168">Technologies</tspan></text>
    <path
       style="fill:url(#linearGradient2112);fill-opacity:1;stroke:#000000;stroke-width:0.665;stroke-linecap:butt;stroke-linejoin:miter;stroke-miterlimit:0.7;stroke-dasharray:none;stroke-opacity:1;marker-mid:url(#marker1750)"
       d="m 34.834284,29.544528 -13.658109,-4.57529 13.658109,4.57529 -6.378206,10.117465 6.378206,-10.117465 10.310445,4.736535 -10.310445,-4.736535 8.31129,-11.848293 16.78105,11.045027 -14.781895,5.539801 14.781895,-5.539801 9.138512,6.099957 -9.138512,-6.099957 -1.550358,-16.238359 10.391821,4.32186 8.239428,9.584048 L 68.768087,16.824763 76.000478,9.1573842 68.768087,16.824763 58.376266,12.502903 46.283834,5.4356474 58.376266,12.502903 59.926624,28.741262 43.145574,17.696235 46.283834,5.4356474 43.145574,17.696235 29.31693,11.795531 43.145574,17.696235 Z"
       id="path901"
       sodipodi:nodetypes="ccccccccccccccccccccccccccccc" />
  </g>
</svg>
